<svg width="44" height="44" viewBox="0 0 44 44" fill="none" xmlns="http://www.w3.org/2000/svg">
<mask id="path-1-inside-1_76_99" fill="white">
<path fill-rule="evenodd" clip-rule="evenodd" d="M12 10C12 4.47715 16.4772 0 22 0H34C39.5229 0 44 4.47715 44 10V22C44 27.5228 39.5229 32 34 32H32V34C32 39.5229 27.5228 44 22 44H10C4.47715 44 0 39.5229 0 34V22C0 16.4772 4.47715 12 10 12H12V10ZM12 18.8321C8.46819 20.3752 6 23.8994 6 28C6 33.5229 10.4772 38 16 38C20.1006 38 23.6248 35.5318 25.1679 32H22C16.4772 32 12 27.5228 12 22V18.8321ZM18.2554 18.2554C19.111 21.9672 22.0328 24.889 25.7446 25.7446C24.889 22.0328 21.9672 19.111 18.2554 18.2554ZM32 25.1679V22C32 16.4772 27.5228 12 22 12H18.8321C20.3752 8.46819 23.8994 6 28 6C33.5229 6 38 10.4772 38 16C38 20.1006 35.5318 23.6248 32 25.1679Z"/>
</mask>
<path fill-rule="evenodd" clip-rule="evenodd" d="M12 10C12 4.47715 16.4772 0 22 0H34C39.5229 0 44 4.47715 44 10V22C44 27.5228 39.5229 32 34 32H32V34C32 39.5229 27.5228 44 22 44H10C4.47715 44 0 39.5229 0 34V22C0 16.4772 4.47715 12 10 12H12V10ZM12 18.8321C8.46819 20.3752 6 23.8994 6 28C6 33.5229 10.4772 38 16 38C20.1006 38 23.6248 35.5318 25.1679 32H22C16.4772 32 12 27.5228 12 22V18.8321ZM18.2554 18.2554C19.111 21.9672 22.0328 24.889 25.7446 25.7446C24.889 22.0328 21.9672 19.111 18.2554 18.2554ZM32 25.1679V22C32 16.4772 27.5228 12 22 12H18.8321C20.3752 8.46819 23.8994 6 28 6C33.5229 6 38 10.4772 38 16C38 20.1006 35.5318 23.6248 32 25.1679Z" fill="black"/>
<path d="M32 32V31H31V32H32ZM12 12V13H13V12H12ZM12 18.8321H13V17.3039L11.5996 17.9157L12 18.8321ZM25.1679 32L26.0843 32.4004L26.6961 31H25.1679V32ZM18.2554 18.2554L18.48 17.2809L16.9217 16.9217L17.2809 18.48L18.2554 18.2554ZM25.7446 25.7446L25.52 26.7191L27.0783 27.0783L26.7191 25.52L25.7446 25.7446ZM32 25.1679H31V26.6961L32.4004 26.0843L32 25.1679ZM18.8321 12L17.9157 11.5996L17.3039 13H18.8321V12ZM22 -1C15.9249 -1 11 3.92487 11 10H13C13 5.02944 17.0294 1 22 1V-1ZM34 -1H22V1H34V-1ZM45 10C45 3.92487 40.0751 -1 34 -1V1C38.9706 1 43 5.02944 43 10H45ZM45 22V10H43V22H45ZM34 33C40.0751 33 45 28.0751 45 22H43C43 26.9706 38.9706 31 34 31V33ZM32 33H34V31H32V33ZM33 34V32H31V34H33ZM22 45C28.0751 45 33 40.0751 33 34H31C31 38.9706 26.9706 43 22 43V45ZM10 45H22V43H10V45ZM-1 34C-1 40.0751 3.92487 45 10 45V43C5.02944 43 1 38.9706 1 34H-1ZM-1 22V34H1V22H-1ZM10 11C3.92487 11 -1 15.9249 -1 22H1C1 17.0294 5.02944 13 10 13V11ZM12 11H10V13H12V11ZM11 10V12H13V10H11ZM11.5996 17.9157C7.71673 19.6122 5 23.4877 5 28H7C7 24.311 9.21965 21.1382 12.4004 19.7484L11.5996 17.9157ZM5 28C5 34.0751 9.92487 39 16 39V37C11.0294 37 7 32.9706 7 28H5ZM16 39C20.5123 39 24.3878 36.2833 26.0843 32.4004L24.2516 31.5996C22.8618 34.7803 19.689 37 16 37V39ZM22 33H25.1679V31H22V33ZM11 22C11 28.0751 15.9249 33 22 33V31C17.0294 31 13 26.9706 13 22H11ZM11 18.8321V22H13V18.8321H11ZM17.2809 18.48C18.2225 22.5646 21.4354 25.7775 25.52 26.7191L25.9692 24.7702C22.6302 24.0005 19.9995 21.3698 19.2298 18.0308L17.2809 18.48ZM26.7191 25.52C25.7775 21.4354 22.5646 18.2225 18.48 17.2809L18.0308 19.2298C21.3698 19.9995 24.0005 22.6302 24.7702 25.9692L26.7191 25.52ZM33 25.1679V22H31V25.1679H33ZM33 22C33 15.9249 28.0751 11 22 11V13C26.9706 13 31 17.0294 31 22H33ZM22 11H18.8321V13H22V11ZM28 5C23.4877 5 19.6122 7.71673 17.9157 11.5996L19.7484 12.4004C21.1382 9.21965 24.311 7 28 7V5ZM39 16C39 9.92487 34.0751 5 28 5V7C32.9706 7 37 11.0294 37 16H39ZM32.4004 26.0843C36.2833 24.3878 39 20.5123 39 16H37C37 19.689 34.7803 22.8618 31.5996 24.2516L32.4004 26.0843Z" fill="white" mask="url(#path-1-inside-1_76_99)"/>
</svg>
