<svg width="64" height="64" viewBox="0 0 64 64" fill="none" xmlns="http://www.w3.org/2000/svg">
<path d="M0 23C0 10.2975 10.2975 0 23 0H41C53.7025 0 64 10.2975 64 23V41C64 53.7025 53.7025 64 41 64H23C10.2975 64 0 53.7025 0 41V23Z" fill="black"/>
<path fill-rule="evenodd" clip-rule="evenodd" d="M22 20C22 14.4772 26.4772 10 32 10H44C49.5229 10 54 14.4772 54 20V32C54 37.5228 49.5229 42 44 42H42V44C42 49.5229 37.5228 54 32 54H20C14.4772 54 10 49.5229 10 44V32C10 26.4772 14.4772 22 20 22H22V20ZM22 28.8321C18.4682 30.3752 16 33.8994 16 38C16 43.5229 20.4772 48 26 48C30.1006 48 33.6248 45.5318 35.1679 42H32C26.4772 42 22 37.5228 22 32V28.8321ZM28.2554 28.2554C29.111 31.9672 32.0328 34.889 35.7446 35.7446C34.889 32.0328 31.9672 29.111 28.2554 28.2554ZM42 35.1679V32C42 26.4772 37.5228 22 32 22H28.8321C30.3752 18.4682 33.8994 16 38 16C43.5229 16 48 20.4772 48 26C48 30.1006 45.5318 33.6248 42 35.1679Z" fill="white"/>
</svg>

